<svg xmlns="http://www.w3.org/2000/svg" viewBox="0 0 1280 640" fill="none">
  <rect width="1280" height="640" fill="#0A0A0F"/>
  <g transform="translate(440, 320) scale(0.55)">
    <path d="M-60-140C-20-155,40-140,80-100C120-60,130-10,115 30C105 55,80 65,55 60" stroke="#E63946" stroke-width="42" stroke-linecap="round" fill="none"/>
    <path d="M-60-140C-75-105,-80-60,-65-20C-50 20,-20 50,20 60" stroke="#E63946" stroke-width="38" stroke-linecap="round" fill="none"/>
    <circle cx="-60" cy="-140" r="28" fill="#E63946"/>
    <path d="M-60-140C-85-100,-110-40,-115 20C-118 60,-108 100,-85 130" stroke="#E63946" stroke-width="36" stroke-linecap="round" fill="none"/>
    <circle cx="55" cy="60" r="8" fill="#E63946"/>
    <circle cx="20" cy="60" r="7" fill="#E63946"/>
    <circle cx="-85" cy="130" r="10" fill="#E63946"/>
  </g>
  <text x="530" y="310" font-family="Inter,-apple-system,sans-serif" font-weight="600" font-size="72" fill="#FFFFFF">Merkle<tspan fill="#E63946">Claw</tspan></text>
  <text x="532" y="365" font-family="Inter,-apple-system,sans-serif" font-weight="400" font-size="24" letter-spacing="3" fill="#666666">Nothing hides on-chain.</text>
</svg>
