<svg xmlns="http://www.w3.org/2000/svg" viewBox="0 0 820 200" fill="none">
  <!-- MerkleClaw v3 — Horizontal Combo (Red + White on Dark) -->
  
  <!-- Icon -->
  <g transform="translate(72, 100) scale(0.3)">
    <path d="M-60 -140 C-20 -155, 40 -140, 80 -100 C120 -60, 130 -10, 115 30 C105 55, 80 65, 55 60" 
          stroke="#E63946" stroke-width="42" stroke-linecap="round" fill="none"/>
    <path d="M-60 -140 C-75 -105, -80 -60, -65 -20 C-50 20, -20 50, 20 60" 
          stroke="#E63946" stroke-width="38" stroke-linecap="round" fill="none"/>
    <circle cx="-60" cy="-140" r="28" fill="#E63946"/>
    <path d="M-60 -140 C-85 -100, -110 -40, -115 20 C-118 60, -108 100, -85 130" 
          stroke="#E63946" stroke-width="36" stroke-linecap="round" fill="none"/>
    <circle cx="55" cy="60" r="8" fill="#E63946"/>
    <circle cx="20" cy="60" r="7" fill="#E63946"/>
    <circle cx="-85" cy="130" r="10" fill="#E63946"/>
  </g>
  
  <!-- Text -->
  <text x="145" y="108" 
        font-family="Inter, -apple-system, 'Segoe UI', sans-serif" 
        font-weight="600" 
        font-size="52" 
        letter-spacing="1"
        fill="#FFFFFF">Merkle<tspan fill="#E63946">Claw</tspan></text>
  
  <text x="147" y="138" 
        font-family="Inter, -apple-system, 'Segoe UI', sans-serif" 
        font-weight="400" 
        font-size="14" 
        letter-spacing="4"
        fill="#666666">Nothing hides on-chain.</text>
</svg>
